PathFileType	4	(X/Y/Z)	 0.11m3min.trc
DataRate	CameraRate	NumFrames	NumMarkers	Units	OrigDataRate	OrigDataStartFrame	OrigNumFrames
200	200	10	34	m	200	126	1000
Frame#	Time	LSH			RSH			MAN			RASI			LASI			HIPR			HIPL			RPSI			LPSI			COX			RTHI1			RTHI2			RTHI3			RTHI4			RSHA1			RSHA2			RSHA3			RSHA4			RHEEL			RMET5			RMET1			RTOE			LTHI1			LTHI2			LTHI3			LTHI4			LSHA1			LSHA2			LSHA3			LSHA4			LHEEL			LMET5			LMET1			LTOE			
		X1	Y1	Z1	X2	Y2	Z2	X3	Y3	Z3	X4	Y4	Z4	X5	Y5	Z5	X6	Y6	Z6	X7	Y7	Z7	X8	Y8	Z8	X9	Y9	Z9	X10	Y10	Z10	X11	Y11	Z11	X12	Y12	Z12	X13	Y13	Z13	X14	Y14	Z14	X15	Y15	Z15	X16	Y16	Z16	X17	Y17	Z17	X18	Y18	Z18	X19	Y19	Z19	X20	Y20	Z20	X21	Y21	Z21	X22	Y22	Z22	X23	Y23	Z23	X24	Y24	Z24	X25	Y25	Z25	X26	Y26	Z26	X27	Y27	Z27	X28	Y28	Z28	X29	Y29	Z29	X30	Y30	Z30	X31	Y31	Z31	X32	Y32	Z32	X33	Y33	Z33	X34	Y34	Z34	
126	0.6300	-0.188326	1.326903	-0.748349	-0.228959	1.304692	-0.401584	-0.146504	1.282064	-0.569411	-0.149231	0.884494	-0.446466	-0.128578	0.881415	-0.684828	-0.210338	0.926188	-0.429245	-0.186955	0.919853	-0.715183	-0.307129	0.905017	-0.522673	-0.295558	0.905434	-0.634807	-0.305761	0.910255	-0.578742	-0.220520	0.670864	-0.411397	-0.188424	0.620853	-0.403798	-0.135161	0.652376	-0.385722	-0.160384	0.708538	-0.391101	-0.210771	0.299472	-0.403394	-0.233073	0.264363	-0.415740	-0.177955	0.239581	-0.420684	-0.160047	0.274930	-0.413148	-0.359216	0.098692	-0.477527	-0.219471	0.029431	-0.413803	-0.189932	0.037062	-0.483294	-0.161097	0.027267	-0.478155	-0.189981	0.683024	-0.737313	-0.164643	0.626926	-0.730928	-0.103893	0.649249	-0.723070	-0.121751	0.706107	-0.729177	-0.219327	0.289233	-0.713118	-0.244438	0.257733	-0.711055	-0.192228	0.226345	-0.695300	-0.172809	0.265890	-0.700218	-0.390456	0.069151	-0.666220	-0.240946	0.031492	-0.717151	-0.203916	0.036112	-0.648650	-0.177309	0.027805	-0.652510	
127	0.6350	-0.188133	1.329043	-0.748124	-0.228624	1.306903	-0.401311	-0.146218	1.284168	-0.569276	-0.148535	0.886635	-0.446581	-0.127659	0.883350	-0.684177	-0.208833	0.928781	-0.428901	-0.185087	0.922176	-0.714880	-0.306505	0.907120	-0.522577	-0.294743	0.907506	-0.635016	-0.305072	0.912267	-0.578801	-0.220652	0.672941	-0.411321	-0.188790	0.622751	-0.403721	-0.135408	0.654000	-0.385556	-0.160354	0.710279	-0.390893	-0.211579	0.300720	-0.403682	-0.233701	0.265479	-0.416098	-0.178459	0.240915	-0.420720	-0.160722	0.276353	-0.413144	-0.358819	0.099541	-0.477942	-0.219543	0.029541	-0.413980	-0.189821	0.037039	-0.483378	-0.161073	0.027260	-0.478173	-0.190085	0.685083	-0.736795	-0.165034	0.628887	-0.730379	-0.104164	0.650900	-0.722582	-0.121730	0.707832	-0.728758	-0.220183	0.290681	-0.712298	-0.245200	0.259129	-0.710226	-0.192870	0.227877	-0.694558	-0.173579	0.267480	-0.699484	-0.390191	0.069992	-0.665535	-0.241046	0.031724	-0.716670	-0.203867	0.036077	-0.648511	-0.177295	0.027808	-0.652477	
128	0.6400	-0.188021	1.331847	-0.747908	-0.228303	1.309803	-0.401080	-0.145958	1.286928	-0.569157	-0.147827	0.889306	-0.446664	-0.126740	0.885875	-0.683588	-0.207362	0.931739	-0.428583	-0.183272	0.924810	-0.714582	-0.305842	0.909798	-0.522420	-0.293918	0.910168	-0.635189	-0.304345	0.914878	-0.578797	-0.220703	0.675644	-0.411138	-0.189061	0.625280	-0.403625	-0.135528	0.656265	-0.385435	-0.160213	0.712650	-0.390697	-0.212374	0.302426	-0.403847	-0.234299	0.267054	-0.416281	-0.178944	0.242737	-0.420662	-0.161379	0.278258	-0.413075	-0.358265	0.100737	-0.478048	-0.219505	0.029680	-0.414109	-0.189704	0.037016	-0.483442	-0.161064	0.027254	-0.478201	-0.189942	0.687763	-0.736356	-0.165182	0.631481	-0.729880	-0.104222	0.653194	-0.721950	-0.121493	0.710193	-0.728228	-0.220879	0.292649	-0.711719	-0.245790	0.261028	-0.709678	-0.193369	0.229939	-0.693956	-0.174209	0.269608	-0.698862	-0.389744	0.071355	-0.665259	-0.240982	0.031996	-0.716271	-0.203807	0.036045	-0.648400	-0.177287	0.027809	-0.652432	
129	0.6450	-0.187987	1.335290	-0.747698	-0.227985	1.313341	-0.400908	-0.145727	1.290336	-0.569043	-0.147109	0.892483	-0.446694	-0.125811	0.888979	-0.683061	-0.206029	0.935058	-0.428311	-0.181603	0.927801	-0.714269	-0.305137	0.913048	-0.522198	-0.293085	0.913420	-0.635314	-0.303589	0.918079	-0.578708	-0.220688	0.678940	-0.410856	-0.189252	0.628425	-0.403464	-0.135535	0.659149	-0.385357	-0.159987	0.715635	-0.390514	-0.213147	0.304566	-0.403880	-0.234875	0.269067	-0.416302	-0.179399	0.245019	-0.420487	-0.162016	0.280631	-0.412905	-0.357551	0.102267	-0.477859	-0.219335	0.029857	-0.414196	-0.189582	0.036992	-0.483484	-0.161073	0.027252	-0.478235	-0.189535	0.691044	-0.736025	-0.165071	0.634690	-0.729461	-0.104050	0.656111	-0.721199	-0.121026	0.713172	-0.727596	-0.221458	0.295095	-0.711396	-0.246246	0.263383	-0.709419	-0.193748	0.232496	-0.693534	-0.174731	0.272246	-0.698387	-0.389103	0.073193	-0.665374	-0.240749	0.032324	-0.715956	-0.203740	0.036014	-0.648320	-0.177288	0.027809	-0.652380	
130	0.6500	-0.188025	1.339338	-0.747488	-0.227666	1.317495	-0.400775	-0.145546	1.294294	-0.568959	-0.146370	0.896158	-0.446644	-0.124867	0.892646	-0.682584	-0.204889	0.938761	-0.428090	-0.180142	0.931220	-0.713926	-0.304382	0.916846	-0.521917	-0.292220	0.917238	-0.635333	-0.302793	0.921830	-0.578541	-0.220621	0.682789	-0.410479	-0.189386	0.632142	-0.403228	-0.135463	0.662612	-0.385293	-0.159693	0.719201	-0.390338	-0.213896	0.307131	-0.403761	-0.235417	0.271485	-0.416165	-0.179812	0.247740	-0.420192	-0.162631	0.283452	-0.412640	-0.356677	0.104106	-0.477400	-0.219022	0.030084	-0.414255	-0.189451	0.036966	-0.483504	-0.161096	0.027252	-0.478275	-0.188869	0.694905	-0.735829	-0.164701	0.638469	-0.729133	-0.103651	0.659617	-0.720364	-0.120338	0.716742	-0.726878	-0.221973	0.297984	-0.711327	-0.246607	0.266154	-0.709445	-0.194032	0.235516	-0.693327	-0.175181	0.275371	-0.698095	-0.388273	0.075482	-0.665839	-0.240346	0.032715	-0.715720	-0.203665	0.035984	-0.648269	-0.177297	0.027805	-0.652324	
131	0.6550	-0.188129	1.343954	-0.747274	-0.227350	1.322238	-0.400681	-0.145414	1.298873	-0.568856	-0.145609	0.900332	-0.446521	-0.123900	0.896854	-0.682140	-0.203955	0.942886	-0.427911	-0.178902	0.935145	-0.713539	-0.303580	0.921165	-0.521584	-0.291319	0.921588	-0.635232	-0.301955	0.926099	-0.578301	-0.220518	0.687157	-0.410012	-0.189485	0.636387	-0.402900	-0.135334	0.666594	-0.385227	-0.159346	0.723302	-0.390165	-0.214628	0.310077	-0.403506	-0.235920	0.274294	-0.415849	-0.180177	0.250876	-0.419761	-0.163217	0.286677	-0.412287	-0.355620	0.106225	-0.476708	-0.218562	0.030370	-0.414301	-0.189310	0.036931	-0.483498	-0.161129	0.027257	-0.478319	-0.187971	0.699305	-0.735774	-0.164095	0.642777	-0.728907	-0.103053	0.663677	-0.719472	-0.119453	0.720860	-0.726093	-0.222456	0.301294	-0.711506	-0.246901	0.269311	-0.709748	-0.194236	0.238975	-0.693351	-0.175584	0.278951	-0.698007	-0.387238	0.078173	-0.666590	-0.239780	0.033171	-0.715555	-0.203579	0.035957	-0.648242	-0.177312	0.027800	-0.652268	
132	0.6600	-0.188300	1.349096	-0.747051	-0.227071	1.327499	-0.400628	-0.145345	1.303993	-0.568749	-0.144818	0.904985	-0.446332	-0.122907	0.901575	-0.681700	-0.203204	0.947471	-0.427752	-0.177858	0.939643	-0.713101	-0.302726	0.925969	-0.521214	-0.290368	0.926428	-0.634995	-0.301082	0.930840	-0.577996	-0.220391	0.691992	-0.409463	-0.189570	0.641107	-0.402485	-0.135169	0.671050	-0.385149	-0.158956	0.727867	-0.389982	-0.215344	0.313380	-0.403120	-0.236390	0.277449	-0.415368	-0.180490	0.254382	-0.419210	-0.163784	0.290280	-0.411843	-0.354369	0.108584	-0.475828	-0.217966	0.030707	-0.414345	-0.189156	0.036889	-0.483470	-0.161175	0.027257	-0.478359	-0.186881	0.704208	-0.735849	-0.163292	0.647576	-0.728782	-0.102290	0.668248	-0.718565	-0.118412	0.725490	-0.725274	-0.222936	0.304992	-0.711915	-0.247154	0.272830	-0.710292	-0.194379	0.242854	-0.693615	-0.175966	0.282965	-0.698146	-0.385990	0.081229	-0.667567	-0.239062	0.033699	-0.715453	-0.203486	0.035922	-0.648239	-0.177341	0.027796	-0.652228	
133	0.6650	-0.188529	1.354713	-0.746813	-0.226854	1.333242	-0.400593	-0.145344	1.309605	-0.568635	-0.143995	0.910096	-0.446084	-0.121891	0.906776	-0.681241	-0.202576	0.952535	-0.427571	-0.176954	0.944752	-0.712605	-0.301821	0.931220	-0.520811	-0.289364	0.931712	-0.634633	-0.300175	0.936009	-0.577635	-0.220255	0.697255	-0.408848	-0.189652	0.646229	-0.401986	-0.134989	0.675923	-0.385056	-0.158531	0.732848	-0.389758	-0.216052	0.316983	-0.402619	-0.236836	0.280898	-0.414754	-0.180752	0.258217	-0.418538	-0.164333	0.294226	-0.411303	-0.352922	0.111157	-0.474816	-0.217267	0.031076	-0.414384	-0.188983	0.036835	-0.483423	-0.161233	0.027252	-0.478397	-0.185657	0.709561	-0.736034	-0.162348	0.652827	-0.728752	-0.101418	0.673281	-0.717678	-0.117269	0.730587	-0.724454	-0.223421	0.309058	-0.712528	-0.247386	0.276691	-0.711047	-0.194476	0.247120	-0.694116	-0.176337	0.287380	-0.698512	-0.384516	0.084595	-0.668690	-0.238205	0.034299	-0.715405	-0.203380	0.035881	-0.648257	-0.177381	0.027790	-0.652195	
134	0.6700	-0.188817	1.360748	-0.746554	-0.226723	1.339432	-0.400557	-0.145424	1.315605	-0.568541	-0.143132	0.915641	-0.445779	-0.120859	0.912412	-0.680744	-0.202000	0.958077	-0.427352	-0.176119	0.950467	-0.712040	-0.300866	0.936875	-0.520384	-0.288310	0.937395	-0.634158	-0.299230	0.941563	-0.577237	-0.220118	0.702891	-0.408165	-0.189749	0.651707	-0.401413	-0.134811	0.681148	-0.384923	-0.158086	0.738187	-0.389479	-0.216761	0.320861	-0.402017	-0.237254	0.284601	-0.414017	-0.180981	0.262342	-0.417770	-0.164870	0.298485	-0.410684	-0.351285	0.113926	-0.473725	-0.216504	0.031460	-0.414409	-0.188787	0.036773	-0.483363	-0.161300	0.027239	-0.478433	-0.184367	0.715324	-0.736302	-0.161327	0.658484	-0.728800	-0.100494	0.678733	-0.716852	-0.116086	0.736102	-0.723670	-0.223924	0.313445	-0.713309	-0.247611	0.280870	-0.711971	-0.194536	0.251741	-0.694842	-0.176711	0.292159	-0.699100	-0.382813	0.088242	-0.669884	-0.237227	0.034965	-0.715396	-0.203248	0.035838	-0.648284	-0.177427	0.027785	-0.652172	
135	0.6750	-0.189158	1.367143	-0.746272	-0.226699	1.345998	-0.400567	-0.145585	1.321976	-0.568452	-0.142242	0.921569	-0.445446	-0.119816	0.918429	-0.680196	-0.201399	0.964077	-0.427071	-0.175285	0.956751	-0.711404	-0.299869	0.942898	-0.519942	-0.287219	0.943433	-0.633605	-0.298250	0.947470	-0.576808	-0.219991	0.708861	-0.407439	-0.189869	0.657497	-0.400780	-0.134656	0.686669	-0.384748	-0.157634	0.743823	-0.389144	-0.217489	0.324966	-0.401322	-0.237662	0.288511	-0.413200	-0.181185	0.266719	-0.416914	-0.165409	0.303023	-0.409942	-0.349475	0.116867	-0.472612	-0.215720	0.031842	-0.414412	-0.188569	0.036701	-0.483290	-0.161380	0.027224	-0.478465	-0.183080	0.721447	-0.736601	-0.160303	0.664508	-0.728913	-0.099582	0.684548	-0.716111	-0.114914	0.741980	-0.722964	-0.224455	0.318143	-0.714247	-0.247834	0.285334	-0.713033	-0.194556	0.256683	-0.695763	-0.177091	0.297259	-0.699897	-0.380871	0.092124	-0.671079	-0.236144	0.035690	-0.715419	-0.203088	0.035791	-0.648316	-0.177480	0.027783	-0.652160	
